<?xml version="1.0" encoding="UTF-8" standalone="no"?>
<!-- Created with Inkscape (http://www.inkscape.org/) -->

<svg
   xmlns:dc="http://purl.org/dc/elements/1.1/"
   xmlns:cc="http://creativecommons.org/ns#"
   xmlns:rdf="http://www.w3.org/1999/02/22-rdf-syntax-ns#"
   xmlns:svg="http://www.w3.org/2000/svg"
   xmlns="http://www.w3.org/2000/svg"
   xmlns:sodipodi="http://sodipodi.sourceforge.net/DTD/sodipodi-0.dtd"
   xmlns:inkscape="http://www.inkscape.org/namespaces/inkscape"
   width="19.821039"
   height="18.99107"
   id="svg3015"
   version="1.1"
   inkscape:version="0.48.5 r10040"
   sodipodi:docname="stairs.svg">
  <defs
     id="defs3017" />
  <sodipodi:namedview
     id="base"
     pagecolor="#ffffff"
     bordercolor="#666666"
     borderopacity="1.0"
     inkscape:pageopacity="0.0"
     inkscape:pageshadow="2"
     inkscape:zoom="22.627417"
     inkscape:cx="11.70517"
     inkscape:cy="12.456477"
     inkscape:document-units="px"
     inkscape:current-layer="layer1"
     showgrid="false"
     fit-margin-top="0"
     fit-margin-left="0"
     fit-margin-right="0"
     fit-margin-bottom="0"
     inkscape:window-width="1920"
     inkscape:window-height="1017"
     inkscape:window-x="-8"
     inkscape:window-y="-8"
     inkscape:window-maximized="1" />
  <metadata
     id="metadata3020">
    <rdf:RDF>
      <cc:Work
         rdf:about="">
        <dc:format>image/svg+xml</dc:format>
        <dc:type
           rdf:resource="http://purl.org/dc/dcmitype/StillImage" />
        <dc:title></dc:title>
      </cc:Work>
    </rdf:RDF>
  </metadata>
  <g
     inkscape:label="Layer 1"
     inkscape:groupmode="layer"
     id="layer1"
     transform="translate(-174.76785,-700.29968)">
    <path
       id="path3074"
       style="font-size:medium;font-style:normal;font-variant:normal;font-weight:normal;font-stretch:normal;text-indent:0;text-align:start;text-decoration:none;line-height:normal;letter-spacing:normal;word-spacing:normal;text-transform:none;direction:ltr;block-progression:tb;writing-mode:lr-tb;text-anchor:start;baseline-shift:baseline;color:#000000;fill:#000000;fill-opacity:1;stroke:none;stroke-width:1px;marker:none;visibility:visible;display:inline;overflow:visible;enable-background:accumulate;font-family:Sans;-inkscape-font-specification:Sans"
       d="m 174.78125,712.03125 0,0.5 0,6.25 1,0 0,-5.75 6.09375,0 0,-1 -6.59375,0 -0.5,0 z m 6.09375,-5.9375 0,0.5 0,6.25 1,0 0,-5.75 6.09375,0 0,-1 -6.59375,0 -0.5,0 z m 6.09375,-5.78125 0,0.5 0,6.25 1,0 0,-5.75 6.125,0 0,-1 -6.625,0 -0.5,0 z m 6.125,0.5 0,16.96875 -17.5625,0 0,1 18.0625,0 0.5,0 0,-0.5 0,-17.46875 -1,0 z" />
    <path
       style="fill:#000000"
       d="m 12.887364,0.10710243 c -0.496394,0.1730136 -0.744576,0.71026848 -0.679486,1.21257767 0,1.4933948 0,2.9867895 0,4.4801843 -1.728324,0.0095 -3.4597397,-0.019004 -5.1861285,0.014287 -0.5945522,0.029737 -0.9930179,0.6412677 -0.9126671,1.206577 0,1.5817833 0,3.1635665 0,4.7453495 -1.7135889,0.0095 -3.4302836,-0.01908 -5.14193468,0.01429 -0.59455223,0.02974 -0.99301808,0.641268 -0.91266715,1.206577 0.0094789,1.516562 -0.01898794,3.036211 0.014287,4.550838 0.02973711,0.594552 0.64126752,0.993017 1.20657703,0.912667 5.6859296,-0.0048 11.3734094,0.0095 17.0583704,-0.0071 0.590931,-0.01358 1.029145,-0.597624 0.95628,-1.169526 -0.0048,-5.420764 0.0095,-10.8430792 -0.0071,-16.262875 -0.01358,-0.59093165 -0.597624,-1.02914552 -1.169526,-0.95628015 -1.663869,0.00957 -3.330846,-0.01907142 -4.99278,0.014287 -0.07773,0.01273119 -0.155454,0.02546239 -0.233181,0.03819358 z"
       id="path3100"
       inkscape:connector-curvature="0"
       transform="translate(174.76785,700.29968)" />
  </g>
</svg>
