<?xml version="1.0" encoding="UTF-8" standalone="no"?>
<!-- Created with Inkscape (http://www.inkscape.org/) -->

<svg
   xmlns:dc="http://purl.org/dc/elements/1.1/"
   xmlns:cc="http://creativecommons.org/ns#"
   xmlns:rdf="http://www.w3.org/1999/02/22-rdf-syntax-ns#"
   xmlns:svg="http://www.w3.org/2000/svg"
   xmlns="http://www.w3.org/2000/svg"
   xmlns:sodipodi="http://sodipodi.sourceforge.net/DTD/sodipodi-0.dtd"
   xmlns:inkscape="http://www.inkscape.org/namespaces/inkscape"
   width="620"
   height="572.00043"
   id="svg4015"
   version="1.1"
   inkscape:version="0.48.5 r10040"
   sodipodi:docname="washroom.svg">
  <defs
     id="defs4017" />
  <sodipodi:namedview
     id="base"
     pagecolor="#ffffff"
     bordercolor="#666666"
     borderopacity="1.0"
     inkscape:pageopacity="0.0"
     inkscape:pageshadow="2"
     inkscape:zoom="0.98994949"
     inkscape:cx="467.57459"
     inkscape:cy="252.67653"
     inkscape:document-units="px"
     inkscape:current-layer="layer1"
     showgrid="false"
     inkscape:window-width="1920"
     inkscape:window-height="1017"
     inkscape:window-x="-8"
     inkscape:window-y="-8"
     inkscape:window-maximized="1"
     fit-margin-top="0"
     fit-margin-left="0"
     fit-margin-right="0"
     fit-margin-bottom="0" />
  <metadata
     id="metadata4020">
    <rdf:RDF>
      <cc:Work
         rdf:about="">
        <dc:format>image/svg+xml</dc:format>
        <dc:type
           rdf:resource="http://purl.org/dc/dcmitype/StillImage" />
        <dc:title></dc:title>
      </cc:Work>
    </rdf:RDF>
  </metadata>
  <g
     inkscape:label="Layer 1"
     inkscape:groupmode="layer"
     id="layer1"
     transform="translate(-29.513089,-162.04801)">
    <path
       transform="translate(29.479201,162.00745)"
       style=""
       d="m 177.49532,46.58577 c 0,25.70621 -20.83901,46.545211 -46.54522,46.545211 -25.70621,0 -46.545208,-20.839001 -46.545208,-46.545211 0,-25.706211 20.838998,-46.54521214 46.545208,-46.54521214 25.70621,0 46.54522,20.83900114 46.54522,46.54521214 z"
       id="circle4029" />
    <path
       inkscape:connector-curvature="0"
       d="m 153.98459,550.16279 v 161.83399 c -0.24346,29.40221 -44.01041,29.40221 -44.39708,0 V 550.16279 H 52.300952 L 113.88399,333.90707 H 103.85885 L 68.054741,457.07255 C 59.003479,484.31219 22.168205,473.28459 30.818487,444.18319 L 70.919061,310.99254 c 4.611576,-15.29544 23.8885,-42.30448 57.286569,-42.96472 h 30.07545 34.37196 c 32.43566,0.66024 51.79279,27.89844 57.28657,42.96472 l 40.1006,133.19065 c 8.1347,28.95816 -28.40842,40.84508 -37.23628,12.88936 l -35.8041,-123.16548 h -11.45732 l 63.01524,216.25572 H 209.839 v 161.83399 c 0.4583,29.40221 -43.13678,29.25897 -42.96493,0 V 550.16279 h -12.88948 z"
       id="path4031" />
    <path
       transform="translate(29.479201,162.00745)"
       style=""
       d="m 558.45067,46.58577 c 0,25.70621 -20.839,46.545211 -46.54521,46.545211 -25.70621,0 -46.54522,-20.839001 -46.54522,-46.545211 0,-25.706211 20.83901,-46.54521214 46.54522,-46.54521214 25.70621,0 46.54521,20.83900114 46.54521,46.54521214 z"
       id="circle4033" />
    <path
       inkscape:connector-curvature="0"
       d="m 491.97509,268.02782 c -35.78976,0 -58.71876,30.98756 -58.71876,61.58276 v 143.21573 c -0.3294,27.98432 39.966,27.98432 40.10064,0 V 341.06783 h 10.02512 v 363.76815 c -0.62156,37.98085 53.04736,36.89241 52.99008,0 V 492.87651 h 8.593 v 211.95947 c 0.70176,36.89241 54.65136,37.98085 54.4222,0 V 341.06783 h 10.02516 v 131.75848 c -0.4726,28.19916 39.61368,28.19916 40.10056,0 V 329.61058 c -0.5728,-30.5952 -24.36108,-61.03424 -60.15084,-61.58276 h -97.38716 z"
       id="path4035" />
    <path
       style=""
       d="m 327.27051,167.77589 52.99676,0 0,562.84003 -52.99676,0 z"
       id="rect4037" />
  </g>
</svg>
