<?xml version="1.0" standalone="no"?>
<!DOCTYPE svg PUBLIC "-//W3C//DTD SVG 20010904//EN"
 "http://www.w3.org/TR/2001/REC-SVG-20010904/DTD/svg10.dtd">
<svg version="1.0" xmlns="http://www.w3.org/2000/svg"
 width="1274.000000pt" height="809.000000pt" viewBox="0 0 1274.000000 809.000000"
 preserveAspectRatio="xMidYMid meet">
<metadata>
Created by potrace 1.13, written by Peter Selinger 2001-2015
</metadata>
<g transform="translate(0.000000,809.000000) scale(0.100000,-0.100000)"
fill="#000000" stroke="none">
<path d="M9491 7134 c-334 -56 -617 -256 -751 -529 -45 -94 -80 -203 -80 -253
0 -21 -5 -22 -69 -22 -247 0 -478 -125 -567 -305 -112 -230 10 -495 281 -610
28 -12 79 -36 115 -53 208 -100 649 -161 1155 -162 602 0 1129 90 1245 215 34
36 34 94 0 130 -33 35 -127 79 -234 110 -50 14 -91 26 -92 28 -1 1 19 30 45
65 246 326 221 758 -61 1068 -228 250 -626 378 -987 318z m637 -669 c115 -27
210 -88 278 -178 110 -146 109 -337 -1 -487 -63 -85 -75 -91 -186 -77 l-95 11
13 50 c8 29 13 84 11 129 l-3 77 27 0 c14 0 32 2 40 5 10 4 13 -14 14 -82 0
-91 14 -137 47 -157 22 -14 47 1 67 40 21 40 20 218 0 259 -31 62 -179 102
-340 92 -159 -10 -213 -34 -217 -95 -1 -20 -5 -67 -9 -104 -6 -60 1 -118 22
-172 5 -14 -4 -16 -72 -16 l-79 1 -33 44 c-94 124 -105 308 -28 440 104 176
334 269 544 220z m-139 -485 c13 0 15 -10 13 -65 -2 -36 1 -88 7 -116 6 -29
10 -53 9 -54 -2 -1 -33 0 -70 3 l-67 4 16 32 c12 22 17 58 17 119 l1 88 29 -5
c16 -3 36 -6 45 -6z"/>
<path d="M1882 6050 c-23 -64 -35 -195 -29 -314 5 -109 24 -216 41 -233 37
-37 70 274 47 436 -13 88 -28 141 -41 141 -4 0 -13 -13 -18 -30z"/>
<path d="M1193 5943 c-18 -128 -6 -473 17 -473 15 0 25 109 25 265 0 156 -10
265 -25 265 -5 0 -12 -26 -17 -57z"/>
<path d="M395 5164 c-141 -25 -245 -93 -245 -160 0 -58 81 -119 201 -151 91
-24 338 -24 429 1 219 60 265 184 98 265 -116 57 -314 75 -483 45z"/>
<path d="M10074 4631 c-23 -10 -44 -23 -48 -29 -4 -6 -19 -5 -43 3 -21 7 -57
16 -80 20 l-43 7 0 -33 c0 -18 -11 -51 -25 -75 -20 -34 -40 -50 -92 -76 -62
-30 -75 -33 -163 -33 -88 0 -101 3 -162 33 -70 34 -105 74 -118 136 -6 30 -8
31 -49 28 -24 -2 -61 -10 -83 -18 -32 -11 -44 -11 -61 -2 -13 7 -60 12 -112
12 -79 0 -97 -3 -143 -27 -56 -30 -92 -75 -92 -118 0 -40 40 -90 95 -118 41
-22 64 -26 140 -27 68 -2 101 -7 137 -23 134 -61 327 -50 441 25 l37 24 38
-19 c116 -59 320 -49 410 20 17 13 35 16 80 12 108 -9 199 66 189 156 -6 55
-32 90 -87 119 -54 27 -111 28 -166 3z"/>
<path d="M4136 4435 c-63 -63 -74 -422 -16 -551 30 -68 77 -53 95 31 12 57 12
56 47 35 42 -26 91 -25 137 1 110 61 135 236 49 335 -58 65 -124 81 -185 44
-35 -21 -34 -23 -48 46 -6 31 -38 74 -55 74 -5 0 -16 -7 -24 -15z m55 -91 c10
-45 9 -57 -11 -112 -26 -71 -24 -146 5 -203 15 -28 16 -40 6 -83 -6 -28 -16
-58 -21 -66 -41 -65 -77 267 -47 429 25 128 45 139 68 35z m216 -56 c82 -75
81 -222 -1 -298 -22 -20 -38 -25 -78 -25 -44 0 -53 4 -83 37 -80 87 -68 233
26 296 42 29 99 25 136 -10z"/>
<path d="M861 4151 c-11 -11 -25 -45 -32 -75 -10 -45 -16 -56 -28 -51 -70 28
-154 5 -199 -53 -37 -48 -38 -131 -4 -180 34 -48 95 -75 151 -69 25 2 53 7 61
11 11 4 19 -6 30 -41 17 -53 41 -74 68 -57 50 31 79 271 48 413 -24 114 -53
144 -95 102z m47 -36 c44 -96 39 -375 -8 -445 -9 -13 -11 -13 -20 0 -6 8 -15
32 -20 53 -10 33 -8 42 12 70 33 45 32 129 -1 175 -19 28 -22 41 -18 77 7 45
26 95 37 95 4 0 12 -11 18 -25z m-109 -123 c38 -20 71 -73 71 -112 0 -65 -67
-130 -135 -130 -67 0 -135 65 -135 128 0 42 31 92 69 112 46 24 87 25 130 2z"/>
<path d="M2692 1931 c-107 -37 -148 -113 -102 -189 l21 -34 -31 -34 c-34 -39
-45 -73 -36 -109 58 -233 937 -329 1397 -154 124 48 199 115 199 179 0 178
-504 307 -1010 259 l-118 -11 -39 40 c-65 68 -177 89 -281 53z m215 -40 c81
-41 96 -102 38 -156 -62 -59 -186 -71 -274 -26 -111 57 -87 158 49 202 42 14
142 3 187 -20z"/>
<path d="M2148 1896 c-53 -19 -87 -43 -99 -70 -10 -21 -13 -22 -87 -13 -103
12 -374 2 -492 -18 -185 -31 -303 -77 -358 -140 -43 -48 -42 -84 3 -134 165
-183 947 -217 1266 -56 62 32 109 87 109 127 0 25 -11 42 -48 78 -48 47 -49
47 -30 70 22 27 23 68 2 98 -40 57 -185 89 -266 58z m195 -40 c101 -49 55
-139 -78 -153 -96 -10 -195 34 -195 87 0 26 39 64 82 78 47 16 146 9 191 -12z"/>
</g>
</svg>
